<svg width="60" height="60" viewBox="0 0 60 60" fill="none" xmlns="http://www.w3.org/2000/svg">
<rect width="60" height="60" rx="7" fill="url(#paint0_linear_179_15444)"/>
<path d="M37.2157 26.5429C37.4737 26.011 37.8345 25.5356 38.2773 25.144C38.72 24.7524 39.236 24.4524 39.7954 24.2614C40.2643 24.1054 40.7558 24.0279 41.25 24.0319V17.625C41.25 15.7642 39.7358 14.25 37.875 14.25H19.875C18.0142 14.25 16.5 15.7642 16.5 17.625V40.125C16.5 41.9858 18.0142 43.5 19.875 43.5H31.0676L30.9461 43.1468C30.7037 42.4477 30.6024 41.7075 30.6481 40.969C30.6939 40.2305 30.8858 39.5085 31.2127 38.8447L37.2157 26.5429ZM21 21H34.5C34.7984 21 35.0845 21.1185 35.2955 21.3295C35.5065 21.5405 35.625 21.8266 35.625 22.125C35.625 22.4234 35.5065 22.7095 35.2955 22.9205C35.0845 23.1315 34.7984 23.25 34.5 23.25H21C20.7016 23.25 20.4155 23.1315 20.2045 22.9205C19.9935 22.7095 19.875 22.4234 19.875 22.125C19.875 21.8266 19.9935 21.5405 20.2045 21.3295C20.4155 21.1185 20.7016 21 21 21ZM21 25.5H33.375C33.6734 25.5 33.9595 25.6185 34.1705 25.8295C34.3815 26.0405 34.5 26.3266 34.5 26.625C34.5 26.9234 34.3815 27.2095 34.1705 27.4205C33.9595 27.6315 33.6734 27.75 33.375 27.75H21C20.7016 27.75 20.4155 27.6315 20.2045 27.4205C19.9935 27.2095 19.875 26.9234 19.875 26.625C19.875 26.3266 19.9935 26.0405 20.2045 25.8295C20.4155 25.6185 20.7016 25.5 21 25.5ZM28.875 36.75H21C20.7016 36.75 20.4155 36.6315 20.2045 36.4205C19.9935 36.2095 19.875 35.9234 19.875 35.625C19.875 35.3266 19.9935 35.0405 20.2045 34.8295C20.4155 34.6185 20.7016 34.5 21 34.5H28.875C29.1734 34.5 29.4595 34.6185 29.6705 34.8295C29.8815 35.0405 30 35.3266 30 35.625C30 35.9234 29.8815 36.2095 29.6705 36.4205C29.4595 36.6315 29.1734 36.75 28.875 36.75ZM21 32.25C20.7016 32.25 20.4155 32.1315 20.2045 31.9205C19.9935 31.7095 19.875 31.4234 19.875 31.125C19.875 30.8266 19.9935 30.5405 20.2045 30.3295C20.4155 30.1185 20.7016 30 21 30H31.125C31.4234 30 31.7095 30.1185 31.9205 30.3295C32.1315 30.5405 32.25 30.8266 32.25 31.125C32.25 31.4234 32.1315 31.7095 31.9205 31.9205C31.7095 32.1315 31.4234 32.25 31.125 32.25H21ZM45.3045 30.4894L39.2993 42.7957C39.1056 43.1947 38.8347 43.5514 38.5024 43.8451C38.1701 44.1388 37.7829 44.3637 37.3631 44.5069L35.2357 45.2381C34.9538 45.3349 34.6449 45.3158 34.3771 45.185C34.1092 45.0542 33.9041 44.8225 33.807 44.5406L33.0746 42.4132C32.9292 41.9941 32.8684 41.5502 32.8958 41.1074C32.9232 40.6646 33.0383 40.2316 33.2344 39.8336L39.2396 27.5295C39.5017 26.9895 39.9607 26.5845 40.5289 26.3888C40.8079 26.2914 41.1035 26.2506 41.3985 26.2687C41.6934 26.2869 41.9818 26.3636 42.2467 26.4945L44.2695 27.4811C44.8095 27.7444 45.2145 28.2034 45.4102 28.7715C45.606 29.3396 45.5689 29.9494 45.3045 30.4894Z" fill="white"/>
<defs>
<linearGradient id="paint0_linear_179_15444" x1="0" y1="0" x2="60" y2="60" gradientUnits="userSpaceOnUse">
<stop stop-color="#FFB59C"/>
<stop offset="1" stop-color="#FF784B"/>
</linearGradient>
</defs>
</svg>
