<svg width="60" height="60" viewBox="0 0 60 60" fill="none" xmlns="http://www.w3.org/2000/svg">
<rect width="60" height="60" rx="7" fill="url(#paint0_linear_179_15452)"/>
<g clip-path="url(#clip0_179_15452)">
<path d="M47.8867 25.0978H45.5117C44.8969 25.0978 44.3984 25.5962 44.3984 26.211V42.5392C44.3984 43.154 44.8969 43.6524 45.5117 43.6524H47.8867C48.5015 43.6524 49 43.154 49 42.5392V26.211C49 25.5962 48.5015 25.0978 47.8867 25.0978ZM32.5264 18.0717L34.3819 14.8579C34.7918 14.148 34.5485 13.2401 33.8385 12.8302L32.553 12.088C31.8431 11.6781 30.9352 11.9214 30.5254 12.6314L28.6699 15.8451L32.5264 18.0717ZM12.3224 37.0732C12.9585 37.4358 13.7702 37.199 14.1363 36.5649L23.2341 20.807C22.8105 20.7062 22.3699 20.6998 21.9435 20.7883C21.5171 20.8769 21.1154 21.0581 20.767 21.3193L17.6151 23.6832C16.6979 24.3711 15.9359 25.2445 15.3786 26.2464L11.3305 33.5255C10.6356 34.7751 11.0715 36.351 12.3097 37.0659L12.3224 37.0732ZM18.9236 33.2725H23.7502L31.4131 19.9999L27.5566 17.7733L18.6013 33.2845C18.7085 33.2769 18.816 33.2729 18.9236 33.2725ZM14.5949 40.2237L13.4431 42.2187C13.389 42.3125 13.3488 42.4138 13.3239 42.5192L12.2617 47.0118C12.0584 47.8716 13.0962 48.4708 13.7393 47.8649L17.099 44.6988C17.1779 44.6245 17.2454 44.539 17.2996 44.4452L18.2103 42.8679C16.6204 42.6313 15.2818 41.616 14.5949 40.2237ZM27.7831 42.9209H20.7506L19.2813 45.4659C19.7537 45.9556 20.4163 46.2607 21.1505 46.2607C22.5851 46.2607 23.7481 45.0977 23.7481 43.6631C23.7481 45.0977 24.9111 46.2607 26.3458 46.2607C27.7804 46.2607 28.9434 45.0977 28.9434 43.6631V43.4935C28.6739 43.3702 28.0568 43.0567 27.7831 42.9209Z" fill="white"/>
<path d="M32.2111 23.0679L26.3194 33.2726H28.0686C28.6834 33.2726 29.1819 33.771 29.1819 34.3859C29.1819 35.0006 28.6836 35.4991 28.0687 35.4991H18.9219C17.4872 35.4991 16.3242 36.6622 16.3242 38.0968C16.3242 39.5314 17.4872 40.6945 18.9219 40.6945H28.3067L29.538 41.3096C31.645 42.3632 34.0053 42.9209 36.3634 42.9209C38.3171 42.9209 40.3366 42.537 42.1702 41.8065V27.3349H40.4156L32.2111 23.0679Z" fill="white"/>
</g>
<defs>
<linearGradient id="paint0_linear_179_15452" x1="0" y1="0" x2="60" y2="60" gradientUnits="userSpaceOnUse">
<stop stop-color="#FFE091"/>
<stop offset="1" stop-color="#FFC837"/>
</linearGradient>
<clipPath id="clip0_179_15452">
<rect width="38" height="38" fill="white" transform="translate(11 11)"/>
</clipPath>
</defs>
</svg>
