<svg width="60" height="60" viewBox="0 0 60 60" fill="none" xmlns="http://www.w3.org/2000/svg">
<rect width="60" height="60" rx="7" fill="url(#paint0_linear_179_15461)"/>
<g clip-path="url(#clip0_179_15461)">
<path d="M20.6341 19.6882C12.1648 22.239 8.54441 30.5985 12.7711 37.1591L11.8687 44.3787L17.5414 41.5424C21.9397 43.9965 27.4917 44.1811 31.9937 42.2885C28.5602 41.8508 25.3752 40.5066 22.8412 38.3949C16.6639 33.2473 16.2226 25.2382 20.6341 19.6882Z" fill="white"/>
<path d="M44.6681 19.156C39.0134 14.4438 29.928 14.4424 24.2715 19.156C18.4925 23.9721 18.4932 31.8627 24.2715 36.678C29.2601 40.8351 36.8742 41.3055 42.4583 38.1898L48.1311 41.0262L47.2286 33.8064C50.2126 29.1771 49.4686 23.1565 44.6681 19.156ZM35.5874 35.74H33.3522V33.5049H35.5874V35.74ZM37.1482 28.1436C36.1562 28.8868 35.5874 29.989 35.5874 31.1675V31.2698H33.3522C33.3655 31.2143 33.1325 28.3595 35.8081 26.3548C36.0981 26.1374 36.331 25.8529 36.487 25.5257C36.6429 25.1985 36.7171 24.8383 36.7033 24.4761C36.6593 23.3171 35.717 22.3749 34.558 22.3308C33.281 22.2827 32.2347 23.2995 32.2347 24.5643H29.9995C29.9995 22.0368 32.0911 20.0016 34.6428 20.0973C36.9626 20.1854 38.8487 22.0716 38.9368 24.3913C38.9643 25.1147 38.816 25.8341 38.5044 26.4876C38.1929 27.1412 37.7275 27.7094 37.1482 28.1436Z" fill="white"/>
</g>
<defs>
<linearGradient id="paint0_linear_179_15461" x1="0" y1="0" x2="60" y2="60" gradientUnits="userSpaceOnUse">
<stop stop-color="#A2FFC7"/>
<stop offset="1" stop-color="#3CD278"/>
</linearGradient>
<clipPath id="clip0_179_15461">
<rect width="38" height="38" fill="white" transform="translate(11 11)"/>
</clipPath>
</defs>
</svg>
