<svg width="60" height="60" viewBox="0 0 60 60" fill="none" xmlns="http://www.w3.org/2000/svg">
<path d="M0 14C0 7.40034 0 4.1005 2.05025 2.05025C4.1005 0 7.40034 0 14 0H46C52.5997 0 55.8995 0 57.9497 2.05025C60 4.1005 60 7.40034 60 14V46C60 52.5997 60 55.8995 57.9497 57.9497C55.8995 60 52.5997 60 46 60H14C7.40034 60 4.1005 60 2.05025 57.9497C0 55.8995 0 52.5997 0 46V14Z" fill="url(#paint0_linear_179_15435)"/>
<path d="M30 28.3999C34.4183 28.3999 38 24.8182 38 20.3999C38 15.9816 34.4183 12.3999 30 12.3999C25.5817 12.3999 22 15.9816 22 20.3999C22 24.8182 25.5817 28.3999 30 28.3999Z" fill="white"/>
<path d="M32.9754 40.752L29.9994 31.856L27.0234 40.752V40.768L29.9994 43.744L32.9754 40.768V40.752Z" fill="white"/>
<path d="M33.2 30H32.752L36.288 40.592C36.4033 40.8857 36.4315 41.2065 36.369 41.5159C36.3066 41.8252 36.1562 42.11 35.936 42.336L30.672 47.6H44.4C44.824 47.5987 45.2302 47.4298 45.53 47.13C45.8298 46.8302 45.9987 46.424 46 46V42.8C45.9958 39.4065 44.6458 36.1533 42.2463 33.7537C39.8467 31.3542 36.5935 30.0042 33.2 30ZM24.064 42.336C23.8438 42.11 23.6934 41.8252 23.6309 41.5159C23.5685 41.2065 23.5967 40.8857 23.712 40.592L27.248 30H26.8C23.4065 30.0042 20.1533 31.3542 17.7537 33.7537C15.3542 36.1533 14.0042 39.4065 14 42.8V46C14.0013 46.424 14.1702 46.8302 14.47 47.13C14.7698 47.4298 15.176 47.5987 15.6 47.6H29.344C29.344 47.6 28.32 46.592 24.064 42.336Z" fill="white"/>
<defs>
<linearGradient id="paint0_linear_179_15435" x1="0" y1="0" x2="60" y2="60" gradientUnits="userSpaceOnUse">
<stop stop-color="#89B2FF"/>
<stop offset="1" stop-color="#0056FB"/>
</linearGradient>
</defs>
</svg>
